<svg xmlns="http://www.w3.org/2000/svg" viewBox="0 0 1408 498"><defs><style>.cls-1{font-size:119.05px;font-family:HelveticaNeue-Bold, Helvetica Neue;font-weight:700;letter-spacing:-0.08em;}.cls-2,.cls-5{fill:#333;}.cls-3{letter-spacing:-0.08em;}.cls-4{fill:#0daaca;}.cls-5{letter-spacing:-0.07em;}.cls-6{fill:#fff;}</style></defs><title>logo</title><text class="cls-1" transform="translate(10 479.38)" id="name"><tspan class="cls-2">THIRD</tspan><tspan class="cls-3" x="325.6" y="0"> </tspan><tspan class="cls-4" x="349.76" y="0">WORLD</tspan><tspan x="754.88" y="0"> </tspan><tspan class="cls-5" x="779.05" y="0">PROBLEMS</tspan></text><g id="logo"><path class="cls-4" d="M542.65 310.1a163.61 163.61 0 1 1 320.78 45.45h33.13a204.11 204.11 0 0 0 12.32-70.07c0-113-91.57-204.52-204.52-204.52s-204.5 91.57-204.5 204.52a204.11 204.11 0 0 0 12.32 70.07h36.92a163.57 163.57 0 0 1-6.45-45.45z"/><path class="cls-4" d="M735 359.32a114.08 114.08 0 0 1-29.44.28c-52.95-6.36-92.2-47.68-92.26-94.73a111.46 111.46 0 0 0-2 11.53c-6.15 51.16 23.8 96.84 66.88 102 20.82 2.52 40.94-4.94 56.82-19.08z"/><path class="cls-6" d="M553.66 167.7c0-46.27 15.36-83.77 34.3-83.77s23.28-33.55-.4-33.55-42.87 46.89-42.87 104.72a244.05 244.05 0 0 0 2.58 35.9H555a198.66 198.66 0 0 1-1.34-23.3z"/><path class="cls-4" d="M557.27 167.7c0-46.27 15.36-83.77 34.3-83.77s34.3 37.51 34.3 83.77c0 8.08 5.59 23.27 5.59 23.27a244.05 244.05 0 0 0 2.58-35.87c0-57.83-19.2-104.71-42.87-104.71S548.3 97.27 548.3 155.1a244.05 244.05 0 0 0 2.58 35.9h7.74a198.66 198.66 0 0 1-1.35-23.3z"/><path class="cls-6" d="M640.67 162.53c0-57.83 19.2-104.71 42.87-104.71s29.1-41.93-.5-41.93-53.59 58.6-53.59 130.89a305.07 305.07 0 0 0 3.23 44.84h9.67a248.32 248.32 0 0 1-1.68-29.09z"/><path class="cls-4" d="M645.19 162.53c0-57.83 19.2-104.71 42.87-104.71s42.87 46.88 42.87 104.71a248.32 248.32 0 0 1-1.69 29.09h8.68a305.07 305.07 0 0 0 3.23-44.84c0-72.29-24-130.89-53.59-130.89S634 74.48 634 146.77a305.07 305.07 0 0 0 3.23 44.84h9.67a248.32 248.32 0 0 1-1.71-29.08z"/><path class="cls-6" d="M736.74 199.8c0-72.29 24-130.89 53.59-130.89s36.38-52.42-.62-52.42-67 73.25-67 163.61a381.34 381.34 0 0 0 4 56.05h12.09a310.41 310.41 0 0 1-2.06-36.35z"/><path class="cls-4" d="M742.38 192.37c0-72.29 24-130.89 53.59-130.89s53.59 58.6 53.59 130.89a310.41 310.41 0 0 1-2.11 36.36h10.85a381.34 381.34 0 0 0 4-56.05c0-90.36-30-163.61-67-163.61s-67 73.25-67 163.61a381.34 381.34 0 0 0 4 56.05h12.09a310.41 310.41 0 0 1-2.01-36.36z"/></g></svg>